<?xml version="1.0" encoding="UTF-8" standalone="no"?>
<!DOCTYPE svg PUBLIC "-//W3C//DTD SVG 1.1//EN"
 "http://www.w3.org/Graphics/SVG/1.1/DTD/svg11.dtd">
<!-- Generated by graphviz version 2.40.1 (20161225.0304)
 -->
<!-- Title: snakemake_dag Pages: 1 -->
<svg width="1468pt" height="764pt"
 viewBox="0.00 0.00 1468.11 764.00" xmlns="http://www.w3.org/2000/svg" xmlns:xlink="http://www.w3.org/1999/xlink">
<g id="graph0" class="graph" transform="scale(1 1) rotate(0) translate(4 760)">
<title>snakemake_dag</title>
<polygon fill="#ffffff" stroke="transparent" points="-4,4 -4,-760 1464.109,-760 1464.109,4 -4,4"/>
<!-- 0 -->
<g id="node1" class="node">
<title>0</title>
<path fill="none" stroke="#566bd8" stroke-width="2" d="M742.109,-36C742.109,-36 712.109,-36 712.109,-36 706.109,-36 700.109,-30 700.109,-24 700.109,-24 700.109,-12 700.109,-12 700.109,-6 706.109,0 712.109,0 712.109,0 742.109,0 742.109,0 748.109,0 754.109,-6 754.109,-12 754.109,-12 754.109,-24 754.109,-24 754.109,-30 748.109,-36 742.109,-36"/>
<text text-anchor="middle" x="727.109" y="-15.5" font-family="sans" font-size="10.00" fill="#000000">all</text>
</g>
<!-- 1 -->
<g id="node2" class="node">
<title>1</title>
<path fill="none" stroke="#56d86b" stroke-width="2" d="M791.609,-540C791.609,-540 720.609,-540 720.609,-540 714.609,-540 708.609,-534 708.609,-528 708.609,-528 708.609,-516 708.609,-516 708.609,-510 714.609,-504 720.609,-504 720.609,-504 791.609,-504 791.609,-504 797.609,-504 803.609,-510 803.609,-516 803.609,-516 803.609,-528 803.609,-528 803.609,-534 797.609,-540 791.609,-540"/>
<text text-anchor="middle" x="756.109" y="-519.5" font-family="sans" font-size="10.00" fill="#000000">align_rsem_star</text>
</g>
<!-- 1&#45;&gt;0 -->
<g id="edge13" class="edge">
<title>1&#45;&gt;0</title>
<path fill="none" stroke="#c0c0c0" stroke-width="2" d="M708.5648,-517.8458C544.7976,-502.9085 14.109,-449.0244 14.109,-378 14.109,-378 14.109,-378 14.109,-162 14.109,-123.9282 -66.1205,-143.2261 161.109,-72 260.3548,-40.891 579.7382,-24.407 689.5853,-19.5501"/>
<polygon fill="#c0c0c0" stroke="#c0c0c0" stroke-width="2" points="690.0077,-23.0351 699.846,-19.1035 689.7032,-16.0417 690.0077,-23.0351"/>
</g>
<!-- 2 -->
<g id="node3" class="node">
<title>2</title>
<path fill="none" stroke="#56d87b" stroke-width="2" d="M1039.609,-396C1039.609,-396 980.609,-396 980.609,-396 974.609,-396 968.609,-390 968.609,-384 968.609,-384 968.609,-372 968.609,-372 968.609,-366 974.609,-360 980.609,-360 980.609,-360 1039.609,-360 1039.609,-360 1045.609,-360 1051.609,-366 1051.609,-372 1051.609,-372 1051.609,-384 1051.609,-384 1051.609,-390 1045.609,-396 1039.609,-396"/>
<text text-anchor="middle" x="1010.109" y="-375.5" font-family="sans" font-size="10.00" fill="#000000">align_multiqc</text>
</g>
<!-- 1&#45;&gt;2 -->
<g id="edge22" class="edge">
<title>1&#45;&gt;2</title>
<path fill="none" stroke="#c0c0c0" stroke-width="2" d="M803.8604,-519.0509C871.2532,-513.7797 988.9949,-500.1203 1015.109,-468 1029.0639,-450.8355 1026.0829,-425.1852 1020.6145,-405.6542"/>
<polygon fill="#c0c0c0" stroke="#c0c0c0" stroke-width="2" points="1023.9416,-404.5667 1017.6047,-396.0759 1017.2635,-406.6652 1023.9416,-404.5667"/>
</g>
<!-- 4 -->
<g id="node5" class="node">
<title>4</title>
<path fill="none" stroke="#a7d856" stroke-width="2" d="M490.609,-468C490.609,-468 425.609,-468 425.609,-468 419.609,-468 413.609,-462 413.609,-456 413.609,-456 413.609,-444 413.609,-444 413.609,-438 419.609,-432 425.609,-432 425.609,-432 490.609,-432 490.609,-432 496.609,-432 502.609,-438 502.609,-444 502.609,-444 502.609,-456 502.609,-456 502.609,-462 496.609,-468 490.609,-468"/>
<text text-anchor="middle" x="458.109" y="-447.5" font-family="sans" font-size="10.00" fill="#000000">deseq2_counts</text>
</g>
<!-- 1&#45;&gt;4 -->
<g id="edge25" class="edge">
<title>1&#45;&gt;4</title>
<path fill="none" stroke="#c0c0c0" stroke-width="2" d="M708.5176,-512.9916C661.2007,-503.6954 586.4141,-488.0885 512.7068,-468.0206"/>
<polygon fill="#c0c0c0" stroke="#c0c0c0" stroke-width="2" points="513.3583,-464.5698 502.788,-465.2908 511.5008,-471.3189 513.3583,-464.5698"/>
</g>
<!-- 20 -->
<g id="node21" class="node">
<title>20</title>
<path fill="none" stroke="#b6d856" stroke-width="2" d="M820.609,-468C820.609,-468 739.609,-468 739.609,-468 733.609,-468 727.609,-462 727.609,-456 727.609,-456 727.609,-444 727.609,-444 727.609,-438 733.609,-432 739.609,-432 739.609,-432 820.609,-432 820.609,-432 826.609,-432 832.609,-438 832.609,-444 832.609,-444 832.609,-456 832.609,-456 832.609,-462 826.609,-468 820.609,-468"/>
<text text-anchor="middle" x="780.109" y="-447.5" font-family="sans" font-size="10.00" fill="#000000">align_fastqc_align</text>
</g>
<!-- 1&#45;&gt;20 -->
<g id="edge48" class="edge">
<title>1&#45;&gt;20</title>
<path fill="none" stroke="#c0c0c0" stroke-width="2" d="M762.1652,-503.8314C764.7602,-496.0463 767.8514,-486.7729 770.7308,-478.1347"/>
<polygon fill="#c0c0c0" stroke="#c0c0c0" stroke-width="2" points="774.1293,-479.0069 773.9712,-468.4133 767.4885,-476.7933 774.1293,-479.0069"/>
</g>
<!-- 21 -->
<g id="node22" class="node">
<title>21</title>
<path fill="none" stroke="#d87d56" stroke-width="2" d="M697.109,-468C697.109,-468 533.109,-468 533.109,-468 527.109,-468 521.109,-462 521.109,-456 521.109,-456 521.109,-444 521.109,-444 521.109,-438 527.109,-432 533.109,-432 533.109,-432 697.109,-432 697.109,-432 703.109,-432 709.109,-438 709.109,-444 709.109,-444 709.109,-456 709.109,-456 709.109,-462 703.109,-468 697.109,-468"/>
<text text-anchor="middle" x="615.109" y="-447.5" font-family="sans" font-size="10.00" fill="#000000">align_combine_counts_to_matrices</text>
</g>
<!-- 1&#45;&gt;21 -->
<g id="edge49" class="edge">
<title>1&#45;&gt;21</title>
<path fill="none" stroke="#c0c0c0" stroke-width="2" d="M720.5287,-503.8314C702.0765,-494.4089 679.3545,-482.8062 659.736,-472.7883"/>
<polygon fill="#c0c0c0" stroke="#c0c0c0" stroke-width="2" points="661.1757,-469.5935 650.6779,-468.1628 657.9922,-475.8278 661.1757,-469.5935"/>
</g>
<!-- 2&#45;&gt;0 -->
<g id="edge14" class="edge">
<title>2&#45;&gt;0</title>
<path fill="none" stroke="#c0c0c0" stroke-width="2" d="M1010.109,-359.8146C1010.109,-332.4983 1010.109,-279.25 1010.109,-234 1010.109,-234 1010.109,-234 1010.109,-162 1010.109,-53.014 841.3274,-26.4795 764.4543,-20.0462"/>
<polygon fill="#c0c0c0" stroke="#c0c0c0" stroke-width="2" points="764.482,-16.5382 754.2442,-19.2654 763.9482,-23.5178 764.482,-16.5382"/>
</g>
<!-- 14 -->
<g id="node15" class="node">
<title>14</title>
<path fill="none" stroke="#d8bc56" stroke-width="2" d="M969.609,-324C969.609,-324 832.609,-324 832.609,-324 826.609,-324 820.609,-318 820.609,-312 820.609,-312 820.609,-300 820.609,-300 820.609,-294 826.609,-288 832.609,-288 832.609,-288 969.609,-288 969.609,-288 975.609,-288 981.609,-294 981.609,-300 981.609,-300 981.609,-312 981.609,-312 981.609,-318 975.609,-324 969.609,-324"/>
<text text-anchor="middle" x="901.109" y="-303.5" font-family="sans" font-size="10.00" fill="#000000">align_deliverables_alignment</text>
</g>
<!-- 2&#45;&gt;14 -->
<g id="edge36" class="edge">
<title>2&#45;&gt;14</title>
<path fill="none" stroke="#c0c0c0" stroke-width="2" d="M982.6037,-359.8314C968.791,-350.7074 951.8834,-339.539 937.0561,-329.7449"/>
<polygon fill="#c0c0c0" stroke="#c0c0c0" stroke-width="2" points="938.8786,-326.7541 928.6055,-324.1628 935.0204,-332.5949 938.8786,-326.7541"/>
</g>
<!-- 3 -->
<g id="node4" class="node">
<title>3</title>
<path fill="none" stroke="#d8a456" stroke-width="2" d="M862.109,-396C862.109,-396 706.109,-396 706.109,-396 700.109,-396 694.109,-390 694.109,-384 694.109,-384 694.109,-372 694.109,-372 694.109,-366 700.109,-360 706.109,-360 706.109,-360 862.109,-360 862.109,-360 868.109,-360 874.109,-366 874.109,-372 874.109,-372 874.109,-384 874.109,-384 874.109,-390 868.109,-396 862.109,-396"/>
<text text-anchor="middle" x="784.109" y="-375.5" font-family="sans" font-size="10.00" fill="#000000">align_annotate_combined_counts</text>
</g>
<!-- 3&#45;&gt;0 -->
<g id="edge16" class="edge">
<title>3&#45;&gt;0</title>
<path fill="none" stroke="#c0c0c0" stroke-width="2" d="M784.109,-359.8146C784.109,-332.4983 784.109,-279.25 784.109,-234 784.109,-234 784.109,-234 784.109,-162 784.109,-120.6022 776.4044,-110.0557 760.109,-72 756.1707,-62.8027 750.8587,-53.3159 745.6486,-44.9093"/>
<polygon fill="#c0c0c0" stroke="#c0c0c0" stroke-width="2" points="748.4532,-42.7994 740.1048,-36.276 742.563,-46.5817 748.4532,-42.7994"/>
</g>
<!-- 3&#45;&gt;14 -->
<g id="edge39" class="edge">
<title>3&#45;&gt;14</title>
<path fill="none" stroke="#c0c0c0" stroke-width="2" d="M813.633,-359.8314C828.5981,-350.6221 846.9476,-339.3301 862.9692,-329.4706"/>
<polygon fill="#c0c0c0" stroke="#c0c0c0" stroke-width="2" points="864.9122,-332.3847 871.5944,-324.1628 861.2434,-326.423 864.9122,-332.3847"/>
</g>
<!-- 4&#45;&gt;0 -->
<g id="edge15" class="edge">
<title>4&#45;&gt;0</title>
<path fill="none" stroke="#c0c0c0" stroke-width="2" d="M492.2205,-431.8834C508.5286,-422.3643 527.7851,-409.8122 543.109,-396 573.4253,-368.6742 576.9289,-357.5926 600.109,-324 662.7275,-233.2532 691.784,-214.0021 722.109,-108 727.839,-87.9706 728.9617,-64.4348 728.7193,-46.4556"/>
<polygon fill="#c0c0c0" stroke="#c0c0c0" stroke-width="2" points="732.2141,-46.2177 728.4323,-36.3208 725.2169,-46.4159 732.2141,-46.2177"/>
</g>
<!-- 6 -->
<g id="node7" class="node">
<title>6</title>
<path fill="none" stroke="#56d0d8" stroke-width="2" d="M185.609,-180C185.609,-180 54.609,-180 54.609,-180 48.609,-180 42.609,-174 42.609,-168 42.609,-168 42.609,-156 42.609,-156 42.609,-150 48.609,-144 54.609,-144 54.609,-144 185.609,-144 185.609,-144 191.609,-144 197.609,-150 197.609,-156 197.609,-156 197.609,-168 197.609,-168 197.609,-174 191.609,-180 185.609,-180"/>
<text text-anchor="middle" x="120.109" y="-159.5" font-family="sans" font-size="10.00" fill="#000000">deseq2_plots_by_phenotype</text>
</g>
<!-- 4&#45;&gt;6 -->
<g id="edge27" class="edge">
<title>4&#45;&gt;6</title>
<path fill="none" stroke="#c0c0c0" stroke-width="2" d="M436.9656,-431.9843C378.6365,-382.2838 215.3809,-243.1784 148.8632,-186.5006"/>
<polygon fill="#c0c0c0" stroke="#c0c0c0" stroke-width="2" points="151.126,-183.8305 141.2444,-180.0089 146.5861,-189.1586 151.126,-183.8305"/>
</g>
<!-- 15 -->
<g id="node16" class="node">
<title>15</title>
<path fill="none" stroke="#56b9d8" stroke-width="2" d="M524.609,-108C524.609,-108 431.609,-108 431.609,-108 425.609,-108 419.609,-102 419.609,-96 419.609,-96 419.609,-84 419.609,-84 419.609,-78 425.609,-72 431.609,-72 431.609,-72 524.609,-72 524.609,-72 530.609,-72 536.609,-78 536.609,-84 536.609,-84 536.609,-96 536.609,-96 536.609,-102 530.609,-108 524.609,-108"/>
<text text-anchor="middle" x="478.109" y="-87.5" font-family="sans" font-size="10.00" fill="#000000">deliverables_deseq2</text>
</g>
<!-- 4&#45;&gt;15 -->
<g id="edge45" class="edge">
<title>4&#45;&gt;15</title>
<path fill="none" stroke="#c0c0c0" stroke-width="2" d="M477.8238,-431.7903C519.8704,-391.4111 617.2701,-289.2538 651.109,-180 655.8428,-164.7163 660.5885,-156.8895 651.109,-144 638.268,-126.5398 589.1447,-112.2332 546.5093,-102.7425"/>
<polygon fill="#c0c0c0" stroke="#c0c0c0" stroke-width="2" points="547.1988,-99.3108 536.6843,-100.6132 545.7161,-106.152 547.1988,-99.3108"/>
</g>
<!-- 22 -->
<g id="node23" class="node">
<title>22</title>
<path fill="none" stroke="#5692d8" stroke-width="2" d="M482.609,-396C482.609,-396 433.609,-396 433.609,-396 427.609,-396 421.609,-390 421.609,-384 421.609,-384 421.609,-372 421.609,-372 421.609,-366 427.609,-360 433.609,-360 433.609,-360 482.609,-360 482.609,-360 488.609,-360 494.609,-366 494.609,-372 494.609,-372 494.609,-384 494.609,-384 494.609,-390 488.609,-396 482.609,-396"/>
<text text-anchor="middle" x="458.109" y="-375.5" font-family="sans" font-size="10.00" fill="#000000">deseq2_init</text>
</g>
<!-- 4&#45;&gt;22 -->
<g id="edge50" class="edge">
<title>4&#45;&gt;22</title>
<path fill="none" stroke="#c0c0c0" stroke-width="2" d="M458.109,-431.8314C458.109,-424.131 458.109,-414.9743 458.109,-406.4166"/>
<polygon fill="#c0c0c0" stroke="#c0c0c0" stroke-width="2" points="461.6091,-406.4132 458.109,-396.4133 454.6091,-406.4133 461.6091,-406.4132"/>
</g>
<!-- 5 -->
<g id="node6" class="node">
<title>5</title>
<path fill="none" stroke="#80d856" stroke-width="2" d="M497.109,-324C497.109,-324 419.109,-324 419.109,-324 413.109,-324 407.109,-318 407.109,-312 407.109,-312 407.109,-300 407.109,-300 407.109,-294 413.109,-288 419.109,-288 419.109,-288 497.109,-288 497.109,-288 503.109,-288 509.109,-294 509.109,-300 509.109,-300 509.109,-312 509.109,-312 509.109,-318 503.109,-324 497.109,-324"/>
<text text-anchor="middle" x="458.109" y="-303.5" font-family="sans" font-size="10.00" fill="#000000">deseq2_contrasts</text>
</g>
<!-- 5&#45;&gt;0 -->
<g id="edge5" class="edge">
<title>5&#45;&gt;0</title>
<path fill="none" stroke="#c0c0c0" stroke-width="2" d="M406.941,-292.4382C331.5863,-269.6634 203.901,-218.7649 245.109,-144 274.0355,-91.5179 302.9095,-92.802 359.109,-72 419.4553,-49.6631 608.8835,-29.3765 689.8315,-21.4861"/>
<polygon fill="#c0c0c0" stroke="#c0c0c0" stroke-width="2" points="690.4397,-24.9438 700.0572,-20.4992 689.7672,-17.9762 690.4397,-24.9438"/>
</g>
<!-- 8 -->
<g id="node9" class="node">
<title>8</title>
<path fill="none" stroke="#d8cb56" stroke-width="2" d="M511.109,-252C511.109,-252 425.109,-252 425.109,-252 419.109,-252 413.109,-246 413.109,-240 413.109,-240 413.109,-228 413.109,-228 413.109,-222 419.109,-216 425.109,-216 425.109,-216 511.109,-216 511.109,-216 517.109,-216 523.109,-222 523.109,-228 523.109,-228 523.109,-240 523.109,-240 523.109,-246 517.109,-252 511.109,-252"/>
<text text-anchor="middle" x="468.109" y="-231.5" font-family="sans" font-size="10.00" fill="#000000">deseq2_annotation</text>
</g>
<!-- 5&#45;&gt;8 -->
<g id="edge29" class="edge">
<title>5&#45;&gt;8</title>
<path fill="none" stroke="#c0c0c0" stroke-width="2" d="M460.6324,-287.8314C461.7019,-280.131 462.9737,-270.9743 464.1622,-262.4166"/>
<polygon fill="#c0c0c0" stroke="#c0c0c0" stroke-width="2" points="467.6426,-262.7997 465.5516,-252.4133 460.7091,-261.8367 467.6426,-262.7997"/>
</g>
<!-- 6&#45;&gt;0 -->
<g id="edge8" class="edge">
<title>6&#45;&gt;0</title>
<path fill="none" stroke="#c0c0c0" stroke-width="2" d="M132.6426,-143.8247C148.4427,-122.5456 177.7332,-88.16 212.109,-72 297.0711,-32.0595 586.193,-21.3469 689.7933,-18.7559"/>
<polygon fill="#c0c0c0" stroke="#c0c0c0" stroke-width="2" points="690.1644,-22.2481 700.078,-18.5104 689.9973,-15.2501 690.1644,-22.2481"/>
</g>
<!-- 6&#45;&gt;15 -->
<g id="edge43" class="edge">
<title>6&#45;&gt;15</title>
<path fill="none" stroke="#c0c0c0" stroke-width="2" d="M197.7897,-146.3771C260.9053,-133.6834 349.0798,-115.95 409.5913,-103.7801"/>
<polygon fill="#c0c0c0" stroke="#c0c0c0" stroke-width="2" points="410.3174,-107.2042 419.431,-101.8012 408.9372,-100.3416 410.3174,-107.2042"/>
</g>
<!-- 7 -->
<g id="node8" class="node">
<title>7</title>
<path fill="none" stroke="#8fd856" stroke-width="2" d="M367.609,-180C367.609,-180 266.609,-180 266.609,-180 260.609,-180 254.609,-174 254.609,-168 254.609,-168 254.609,-156 254.609,-156 254.609,-150 260.609,-144 266.609,-144 266.609,-144 367.609,-144 367.609,-144 373.609,-144 379.609,-150 379.609,-156 379.609,-156 379.609,-168 379.609,-168 379.609,-174 373.609,-180 367.609,-180"/>
<text text-anchor="middle" x="317.109" y="-159.5" font-family="sans" font-size="10.00" fill="#000000">deseq2_volcano_plots</text>
</g>
<!-- 7&#45;&gt;0 -->
<g id="edge2" class="edge">
<title>7&#45;&gt;0</title>
<path fill="none" stroke="#c0c0c0" stroke-width="2" d="M330.2947,-143.8267C346.5555,-122.8849 376.2353,-89.1584 410.109,-72 458.6452,-47.4144 617.0383,-28.9629 689.8654,-21.5571"/>
<polygon fill="#c0c0c0" stroke="#c0c0c0" stroke-width="2" points="690.3649,-25.0246 699.9662,-20.5451 689.6671,-18.0595 690.3649,-25.0246"/>
</g>
<!-- 7&#45;&gt;15 -->
<g id="edge41" class="edge">
<title>7&#45;&gt;15</title>
<path fill="none" stroke="#c0c0c0" stroke-width="2" d="M357.7361,-143.8314C379.2689,-134.2018 405.8939,-122.295 428.6242,-112.1299"/>
<polygon fill="#c0c0c0" stroke="#c0c0c0" stroke-width="2" points="430.0742,-115.3155 437.774,-108.038 427.2164,-108.9254 430.0742,-115.3155"/>
</g>
<!-- 8&#45;&gt;0 -->
<g id="edge3" class="edge">
<title>8&#45;&gt;0</title>
<path fill="none" stroke="#c0c0c0" stroke-width="2" d="M523.3517,-222.9274C569.8694,-212.6781 631.8211,-196.5631 651.109,-180 692.2953,-144.632 712.6661,-82.0631 721.448,-45.9092"/>
<polygon fill="#c0c0c0" stroke="#c0c0c0" stroke-width="2" points="724.8904,-46.5562 723.7187,-36.0264 718.0682,-44.9886 724.8904,-46.5562"/>
</g>
<!-- 8&#45;&gt;7 -->
<g id="edge28" class="edge">
<title>8&#45;&gt;7</title>
<path fill="none" stroke="#c0c0c0" stroke-width="2" d="M430.0053,-215.8314C409.9895,-206.2874 385.2823,-194.5065 364.0896,-184.4013"/>
<polygon fill="#c0c0c0" stroke="#c0c0c0" stroke-width="2" points="365.4715,-181.1828 354.9387,-180.038 362.4587,-187.5013 365.4715,-181.1828"/>
</g>
<!-- 9 -->
<g id="node10" class="node">
<title>9</title>
<path fill="none" stroke="#d85656" stroke-width="2" d="M507.609,-180C507.609,-180 448.609,-180 448.609,-180 442.609,-180 436.609,-174 436.609,-168 436.609,-168 436.609,-156 436.609,-156 436.609,-150 442.609,-144 448.609,-144 448.609,-144 507.609,-144 507.609,-144 513.609,-144 519.609,-150 519.609,-156 519.609,-156 519.609,-168 519.609,-168 519.609,-174 513.609,-180 507.609,-180"/>
<text text-anchor="middle" x="478.109" y="-159.5" font-family="sans" font-size="10.00" fill="#000000">deseq2_excel</text>
</g>
<!-- 8&#45;&gt;9 -->
<g id="edge30" class="edge">
<title>8&#45;&gt;9</title>
<path fill="none" stroke="#c0c0c0" stroke-width="2" d="M470.6324,-215.8314C471.7019,-208.131 472.9737,-198.9743 474.1622,-190.4166"/>
<polygon fill="#c0c0c0" stroke="#c0c0c0" stroke-width="2" points="477.6426,-190.7997 475.5516,-180.4133 470.7091,-189.8367 477.6426,-190.7997"/>
</g>
<!-- 10 -->
<g id="node11" class="node">
<title>10</title>
<path fill="none" stroke="#56d8d0" stroke-width="2" d="M630.109,-180C630.109,-180 550.109,-180 550.109,-180 544.109,-180 538.109,-174 538.109,-168 538.109,-168 538.109,-156 538.109,-156 538.109,-150 544.109,-144 550.109,-144 550.109,-144 630.109,-144 630.109,-144 636.109,-144 642.109,-150 642.109,-156 642.109,-156 642.109,-168 642.109,-168 642.109,-174 636.109,-180 630.109,-180"/>
<text text-anchor="middle" x="590.109" y="-159.5" font-family="sans" font-size="10.00" fill="#000000">deseq2_summary</text>
</g>
<!-- 8&#45;&gt;10 -->
<g id="edge31" class="edge">
<title>8&#45;&gt;10</title>
<path fill="none" stroke="#c0c0c0" stroke-width="2" d="M498.8948,-215.8314C514.4993,-206.6221 533.633,-195.3301 550.3393,-185.4706"/>
<polygon fill="#c0c0c0" stroke="#c0c0c0" stroke-width="2" points="552.4999,-188.2596 559.3331,-180.1628 548.9421,-182.2312 552.4999,-188.2596"/>
</g>
<!-- 8&#45;&gt;15 -->
<g id="edge40" class="edge">
<title>8&#45;&gt;15</title>
<path fill="none" stroke="#c0c0c0" stroke-width="2" d="M449.505,-215.8067C440.9057,-206.0891 431.6153,-193.3872 427.109,-180 422.0046,-164.8361 421.1978,-158.868 427.109,-144 431.3766,-133.2659 438.9021,-123.4321 446.8829,-115.1828"/>
<polygon fill="#c0c0c0" stroke="#c0c0c0" stroke-width="2" points="449.4891,-117.5319 454.2599,-108.072 444.6311,-112.4921 449.4891,-117.5319"/>
</g>
<!-- 9&#45;&gt;0 -->
<g id="edge12" class="edge">
<title>9&#45;&gt;0</title>
<path fill="none" stroke="#c0c0c0" stroke-width="2" d="M509.3929,-143.9081C555.7504,-117.0989 642.4528,-66.9578 691.2923,-38.7133"/>
<polygon fill="#c0c0c0" stroke="#c0c0c0" stroke-width="2" points="693.0483,-41.7409 699.9528,-33.7048 689.5439,-35.6813 693.0483,-41.7409"/>
</g>
<!-- 9&#45;&gt;15 -->
<g id="edge44" class="edge">
<title>9&#45;&gt;15</title>
<path fill="none" stroke="#c0c0c0" stroke-width="2" d="M478.109,-143.8314C478.109,-136.131 478.109,-126.9743 478.109,-118.4166"/>
<polygon fill="#c0c0c0" stroke="#c0c0c0" stroke-width="2" points="481.6091,-118.4132 478.109,-108.4133 474.6091,-118.4133 481.6091,-118.4132"/>
</g>
<!-- 10&#45;&gt;0 -->
<g id="edge6" class="edge">
<title>10&#45;&gt;0</title>
<path fill="none" stroke="#c0c0c0" stroke-width="2" d="M607.4601,-143.7623C631.651,-118.3354 675.6148,-72.1253 702.9848,-43.3569"/>
<polygon fill="#c0c0c0" stroke="#c0c0c0" stroke-width="2" points="705.5417,-45.7471 709.8987,-36.0896 700.4702,-40.9221 705.5417,-45.7471"/>
</g>
<!-- 10&#45;&gt;15 -->
<g id="edge42" class="edge">
<title>10&#45;&gt;15</title>
<path fill="none" stroke="#c0c0c0" stroke-width="2" d="M561.8467,-143.8314C547.6538,-134.7074 530.2808,-123.539 515.0454,-113.7449"/>
<polygon fill="#c0c0c0" stroke="#c0c0c0" stroke-width="2" points="516.6668,-110.6263 506.3623,-108.1628 512.8814,-116.5146 516.6668,-110.6263"/>
</g>
<!-- 11 -->
<g id="node12" class="node">
<title>11</title>
<path fill="none" stroke="#56d892" stroke-width="2" d="M1399.609,-468C1399.609,-468 1242.609,-468 1242.609,-468 1236.609,-468 1230.609,-462 1230.609,-456 1230.609,-456 1230.609,-444 1230.609,-444 1230.609,-438 1236.609,-432 1242.609,-432 1242.609,-432 1399.609,-432 1399.609,-432 1405.609,-432 1411.609,-438 1411.609,-444 1411.609,-444 1411.609,-456 1411.609,-456 1411.609,-462 1405.609,-468 1399.609,-468"/>
<text text-anchor="middle" x="1321.109" y="-447.5" font-family="sans" font-size="10.00" fill="#000000">align_fastq_screen_multi_species</text>
</g>
<!-- 11&#45;&gt;0 -->
<g id="edge1" class="edge">
<title>11&#45;&gt;0</title>
<path fill="none" stroke="#c0c0c0" stroke-width="2" d="M1318.8298,-431.8486C1315.6078,-404.5755 1310.109,-351.3818 1310.109,-306 1310.109,-306 1310.109,-306 1310.109,-162 1310.109,-49.1855 893.4628,-24.2012 764.615,-19.1721"/>
<polygon fill="#c0c0c0" stroke="#c0c0c0" stroke-width="2" points="764.5696,-15.6681 754.4463,-18.7938 764.3093,-22.6633 764.5696,-15.6681"/>
</g>
<!-- 11&#45;&gt;2 -->
<g id="edge19" class="edge">
<title>11&#45;&gt;2</title>
<path fill="none" stroke="#c0c0c0" stroke-width="2" d="M1243.032,-431.9243C1186.3038,-418.7911 1111.1189,-401.3849 1061.7183,-389.9481"/>
<polygon fill="#c0c0c0" stroke="#c0c0c0" stroke-width="2" points="1062.4215,-386.5184 1051.8897,-387.6727 1060.8426,-393.3381 1062.4215,-386.5184"/>
</g>
<!-- 13 -->
<g id="node14" class="node">
<title>13</title>
<path fill="none" stroke="#59d856" stroke-width="2" d="M1269.609,-396C1269.609,-396 1120.609,-396 1120.609,-396 1114.609,-396 1108.609,-390 1108.609,-384 1108.609,-384 1108.609,-372 1108.609,-372 1108.609,-366 1114.609,-360 1120.609,-360 1120.609,-360 1269.609,-360 1269.609,-360 1275.609,-360 1281.609,-366 1281.609,-372 1281.609,-372 1281.609,-384 1281.609,-384 1281.609,-390 1275.609,-396 1269.609,-396"/>
<text text-anchor="middle" x="1195.109" y="-375.5" font-family="sans" font-size="10.00" fill="#000000">align_deliverables_fastq_screen</text>
</g>
<!-- 11&#45;&gt;13 -->
<g id="edge34" class="edge">
<title>11&#45;&gt;13</title>
<path fill="none" stroke="#c0c0c0" stroke-width="2" d="M1289.3139,-431.8314C1273.0485,-422.5368 1253.0704,-411.1208 1235.7039,-401.1971"/>
<polygon fill="#c0c0c0" stroke="#c0c0c0" stroke-width="2" points="1237.3129,-398.0854 1226.8939,-396.1628 1233.8399,-404.1631 1237.3129,-398.0854"/>
</g>
<!-- 12 -->
<g id="node13" class="node">
<title>12</title>
<path fill="none" stroke="#56d8b9" stroke-width="2" d="M1200.109,-468C1200.109,-468 1074.109,-468 1074.109,-468 1068.109,-468 1062.109,-462 1062.109,-456 1062.109,-456 1062.109,-444 1062.109,-444 1062.109,-438 1068.109,-432 1074.109,-432 1074.109,-432 1200.109,-432 1200.109,-432 1206.109,-432 1212.109,-438 1212.109,-444 1212.109,-444 1212.109,-456 1212.109,-456 1212.109,-462 1206.109,-468 1200.109,-468"/>
<text text-anchor="middle" x="1137.109" y="-447.5" font-family="sans" font-size="10.00" fill="#000000">align_fastq_screen_biotype</text>
</g>
<!-- 12&#45;&gt;0 -->
<g id="edge7" class="edge">
<title>12&#45;&gt;0</title>
<path fill="none" stroke="#c0c0c0" stroke-width="2" d="M1121.8486,-431.5561C1114.2937,-421.5775 1105.6317,-408.7174 1100.109,-396 1083.7873,-358.4152 1080.109,-346.9758 1080.109,-306 1080.109,-306 1080.109,-306 1080.109,-162 1080.109,-104.4809 1037.9438,-98.9122 987.109,-72 948.8814,-51.7622 827.0045,-32.1799 764.6443,-23.1653"/>
<polygon fill="#c0c0c0" stroke="#c0c0c0" stroke-width="2" points="764.8412,-19.658 754.4468,-21.7089 763.8514,-26.5877 764.8412,-19.658"/>
</g>
<!-- 12&#45;&gt;2 -->
<g id="edge20" class="edge">
<title>12&#45;&gt;2</title>
<path fill="none" stroke="#c0c0c0" stroke-width="2" d="M1105.0615,-431.8314C1088.667,-422.5368 1068.5304,-411.1208 1051.0261,-401.1971"/>
<polygon fill="#c0c0c0" stroke="#c0c0c0" stroke-width="2" points="1052.5716,-398.05 1042.1462,-396.1628 1049.1193,-404.1395 1052.5716,-398.05"/>
</g>
<!-- 12&#45;&gt;13 -->
<g id="edge35" class="edge">
<title>12&#45;&gt;13</title>
<path fill="none" stroke="#c0c0c0" stroke-width="2" d="M1151.7448,-431.8314C1158.4251,-423.5386 1166.4658,-413.557 1173.7994,-404.4533"/>
<polygon fill="#c0c0c0" stroke="#c0c0c0" stroke-width="2" points="1176.7284,-406.3965 1180.2761,-396.4133 1171.2771,-402.0052 1176.7284,-406.3965"/>
</g>
<!-- 13&#45;&gt;0 -->
<g id="edge10" class="edge">
<title>13&#45;&gt;0</title>
<path fill="none" stroke="#c0c0c0" stroke-width="2" d="M1187.0502,-359.7668C1175.8956,-332.8248 1157.109,-280.5405 1157.109,-234 1157.109,-234 1157.109,-234 1157.109,-162 1157.109,-113.1738 1135.6557,-97.649 1094.109,-72 1039.3136,-38.172 846.1657,-24.2423 764.2631,-19.766"/>
<polygon fill="#c0c0c0" stroke="#c0c0c0" stroke-width="2" points="764.3264,-16.2645 754.1553,-19.2309 763.9563,-23.2547 764.3264,-16.2645"/>
</g>
<!-- 14&#45;&gt;0 -->
<g id="edge4" class="edge">
<title>14&#45;&gt;0</title>
<path fill="none" stroke="#c0c0c0" stroke-width="2" d="M896.5377,-287.94C885.3392,-246.3589 853.344,-142.0622 798.109,-72 788.3714,-59.6484 775.1852,-48.598 762.8194,-39.7604"/>
<polygon fill="#c0c0c0" stroke="#c0c0c0" stroke-width="2" points="764.6666,-36.7832 754.4419,-34.0069 760.7036,-42.5534 764.6666,-36.7832"/>
</g>
<!-- 15&#45;&gt;0 -->
<g id="edge11" class="edge">
<title>15&#45;&gt;0</title>
<path fill="none" stroke="#c0c0c0" stroke-width="2" d="M536.8032,-73.0282C584.2551,-59.3072 649.6046,-40.4109 690.0622,-28.7123"/>
<polygon fill="#c0c0c0" stroke="#c0c0c0" stroke-width="2" points="691.1515,-32.0408 699.7857,-25.9007 689.207,-25.3163 691.1515,-32.0408"/>
</g>
<!-- 16 -->
<g id="node17" class="node">
<title>16</title>
<path fill="none" stroke="#68d856" stroke-width="2" d="M1448.109,-108C1448.109,-108 1350.109,-108 1350.109,-108 1344.109,-108 1338.109,-102 1338.109,-96 1338.109,-96 1338.109,-84 1338.109,-84 1338.109,-78 1344.109,-72 1350.109,-72 1350.109,-72 1448.109,-72 1448.109,-72 1454.109,-72 1460.109,-78 1460.109,-84 1460.109,-84 1460.109,-96 1460.109,-96 1460.109,-102 1454.109,-108 1448.109,-108"/>
<text text-anchor="middle" x="1399.109" y="-87.5" font-family="sans" font-size="10.00" fill="#000000">deliverables_run_info</text>
</g>
<!-- 16&#45;&gt;0 -->
<g id="edge9" class="edge">
<title>16&#45;&gt;0</title>
<path fill="none" stroke="#c0c0c0" stroke-width="2" d="M1337.8618,-74.5337C1333.2237,-73.5979 1328.6015,-72.7383 1324.109,-72 1114.2345,-37.511 858.9695,-23.6733 764.5485,-19.4947"/>
<polygon fill="#c0c0c0" stroke="#c0c0c0" stroke-width="2" points="764.5021,-15.9895 754.3602,-19.054 764.1995,-22.983 764.5021,-15.9895"/>
</g>
<!-- 17 -->
<g id="node18" class="node">
<title>17</title>
<path fill="none" stroke="#56d8a9" stroke-width="2" d="M1036.109,-612C1036.109,-612 954.109,-612 954.109,-612 948.109,-612 942.109,-606 942.109,-600 942.109,-600 942.109,-588 942.109,-588 942.109,-582 948.109,-576 954.109,-576 954.109,-576 1036.109,-576 1036.109,-576 1042.109,-576 1048.109,-582 1048.109,-588 1048.109,-588 1048.109,-600 1048.109,-600 1048.109,-606 1042.109,-612 1036.109,-612"/>
<text text-anchor="middle" x="995.109" y="-591.5" font-family="sans" font-size="10.00" fill="#000000">align_cutadapt_PE</text>
</g>
<!-- 17&#45;&gt;1 -->
<g id="edge18" class="edge">
<title>17&#45;&gt;1</title>
<path fill="none" stroke="#c0c0c0" stroke-width="2" d="M942.0672,-578.0209C903.9069,-566.5249 852.4894,-551.0351 813.3929,-539.2571"/>
<polygon fill="#c0c0c0" stroke="#c0c0c0" stroke-width="2" points="814.3187,-535.8807 803.7342,-536.3473 812.2995,-542.5831 814.3187,-535.8807"/>
</g>
<!-- 17&#45;&gt;11 -->
<g id="edge32" class="edge">
<title>17&#45;&gt;11</title>
<path fill="none" stroke="#c0c0c0" stroke-width="2" d="M1036.067,-575.9081C1095.8041,-549.5212 1206.7114,-500.5315 1271.1586,-472.064"/>
<polygon fill="#c0c0c0" stroke="#c0c0c0" stroke-width="2" points="1272.5854,-475.2601 1280.3185,-468.0179 1269.7569,-468.8569 1272.5854,-475.2601"/>
</g>
<!-- 17&#45;&gt;12 -->
<g id="edge33" class="edge">
<title>17&#45;&gt;12</title>
<path fill="none" stroke="#c0c0c0" stroke-width="2" d="M1013.0934,-575.7623C1038.1671,-550.3354 1083.7355,-504.1253 1112.1043,-475.3569"/>
<polygon fill="#c0c0c0" stroke="#c0c0c0" stroke-width="2" points="1114.7413,-477.6675 1119.2706,-468.0896 1109.757,-472.7525 1114.7413,-477.6675"/>
</g>
<!-- 19 -->
<g id="node20" class="node">
<title>19</title>
<path fill="none" stroke="#d86e56" stroke-width="2" d="M993.609,-468C993.609,-468 862.609,-468 862.609,-468 856.609,-468 850.609,-462 850.609,-456 850.609,-456 850.609,-444 850.609,-444 850.609,-438 856.609,-432 862.609,-432 862.609,-432 993.609,-432 993.609,-432 999.609,-432 1005.609,-438 1005.609,-444 1005.609,-444 1005.609,-456 1005.609,-456 1005.609,-462 999.609,-468 993.609,-468"/>
<text text-anchor="middle" x="928.109" y="-447.5" font-family="sans" font-size="10.00" fill="#000000">align_fastqc_trimmed_reads</text>
</g>
<!-- 17&#45;&gt;19 -->
<g id="edge47" class="edge">
<title>17&#45;&gt;19</title>
<path fill="none" stroke="#c0c0c0" stroke-width="2" d="M986.6234,-575.7623C975.0446,-550.8764 954.2028,-506.0822 940.7722,-477.2165"/>
<polygon fill="#c0c0c0" stroke="#c0c0c0" stroke-width="2" points="943.9176,-475.6798 936.5257,-468.0896 937.5709,-478.6328 943.9176,-475.6798"/>
</g>
<!-- 18 -->
<g id="node19" class="node">
<title>18</title>
<path fill="none" stroke="#567bd8" stroke-width="2" d="M838.109,-612C838.109,-612 674.109,-612 674.109,-612 668.109,-612 662.109,-606 662.109,-600 662.109,-600 662.109,-588 662.109,-588 662.109,-582 668.109,-576 674.109,-576 674.109,-576 838.109,-576 838.109,-576 844.109,-576 850.109,-582 850.109,-588 850.109,-588 850.109,-600 850.109,-600 850.109,-606 844.109,-612 838.109,-612"/>
<text text-anchor="middle" x="756.109" y="-591.5" font-family="sans" font-size="10.00" fill="#000000">align_rsem_star_genome_generate</text>
</g>
<!-- 18&#45;&gt;1 -->
<g id="edge17" class="edge">
<title>18&#45;&gt;1</title>
<path fill="none" stroke="#c0c0c0" stroke-width="2" d="M756.109,-575.8314C756.109,-568.131 756.109,-558.9743 756.109,-550.4166"/>
<polygon fill="#c0c0c0" stroke="#c0c0c0" stroke-width="2" points="759.6091,-550.4132 756.109,-540.4133 752.6091,-550.4133 759.6091,-550.4132"/>
</g>
<!-- 19&#45;&gt;2 -->
<g id="edge23" class="edge">
<title>19&#45;&gt;2</title>
<path fill="none" stroke="#c0c0c0" stroke-width="2" d="M948.8011,-431.8314C958.8038,-423.0485 970.964,-412.3712 981.8089,-402.8489"/>
<polygon fill="#c0c0c0" stroke="#c0c0c0" stroke-width="2" points="984.2184,-405.3909 989.4236,-396.1628 979.5998,-400.1308 984.2184,-405.3909"/>
</g>
<!-- 19&#45;&gt;14 -->
<g id="edge38" class="edge">
<title>19&#45;&gt;14</title>
<path fill="none" stroke="#c0c0c0" stroke-width="2" d="M926.4442,-431.9478C924.5869,-413.6885 921.1629,-384.7097 916.109,-360 914.3625,-351.4609 912.0016,-342.2859 909.6702,-333.9656"/>
<polygon fill="#c0c0c0" stroke="#c0c0c0" stroke-width="2" points="913.0267,-332.9733 906.8842,-324.3407 906.3027,-334.9196 913.0267,-332.9733"/>
</g>
<!-- 20&#45;&gt;2 -->
<g id="edge21" class="edge">
<title>20&#45;&gt;2</title>
<path fill="none" stroke="#c0c0c0" stroke-width="2" d="M832.8756,-433.4817C870.6167,-421.6672 921.1548,-405.8465 958.6059,-394.1227"/>
<polygon fill="#c0c0c0" stroke="#c0c0c0" stroke-width="2" points="959.8163,-397.4114 968.314,-391.0837 957.725,-390.731 959.8163,-397.4114"/>
</g>
<!-- 20&#45;&gt;14 -->
<g id="edge37" class="edge">
<title>20&#45;&gt;14</title>
<path fill="none" stroke="#c0c0c0" stroke-width="2" d="M832.6139,-433.2728C851.1657,-424.8729 870.5243,-412.8091 883.109,-396 896.3427,-378.324 900.5237,-353.4132 901.5749,-334.2793"/>
<polygon fill="#c0c0c0" stroke="#c0c0c0" stroke-width="2" points="905.08,-334.1521 901.8759,-324.0535 898.0831,-333.9461 905.08,-334.1521"/>
</g>
<!-- 21&#45;&gt;3 -->
<g id="edge24" class="edge">
<title>21&#45;&gt;3</title>
<path fill="none" stroke="#c0c0c0" stroke-width="2" d="M657.7548,-431.8314C680.458,-422.159 708.5541,-410.1891 732.4832,-399.9944"/>
<polygon fill="#c0c0c0" stroke="#c0c0c0" stroke-width="2" points="733.9418,-403.1775 741.7698,-396.038 731.1981,-396.7376 733.9418,-403.1775"/>
</g>
<!-- 22&#45;&gt;5 -->
<g id="edge26" class="edge">
<title>22&#45;&gt;5</title>
<path fill="none" stroke="#c0c0c0" stroke-width="2" d="M458.109,-359.8314C458.109,-352.131 458.109,-342.9743 458.109,-334.4166"/>
<polygon fill="#c0c0c0" stroke="#c0c0c0" stroke-width="2" points="461.6091,-334.4132 458.109,-324.4133 454.6091,-334.4133 461.6091,-334.4132"/>
</g>
<!-- 23 -->
<g id="node24" class="node">
<title>23</title>
<path fill="none" stroke="#ced856" stroke-width="2" d="M1042.609,-684C1042.609,-684 947.609,-684 947.609,-684 941.609,-684 935.609,-678 935.609,-672 935.609,-672 935.609,-660 935.609,-660 935.609,-654 941.609,-648 947.609,-648 947.609,-648 1042.609,-648 1042.609,-648 1048.609,-648 1054.609,-654 1054.609,-660 1054.609,-660 1054.609,-672 1054.609,-672 1054.609,-678 1048.609,-684 1042.609,-684"/>
<text text-anchor="middle" x="995.109" y="-663.5" font-family="sans" font-size="10.00" fill="#000000">align_standardize_gz</text>
</g>
<!-- 23&#45;&gt;17 -->
<g id="edge46" class="edge">
<title>23&#45;&gt;17</title>
<path fill="none" stroke="#c0c0c0" stroke-width="2" d="M995.109,-647.8314C995.109,-640.131 995.109,-630.9743 995.109,-622.4166"/>
<polygon fill="#c0c0c0" stroke="#c0c0c0" stroke-width="2" points="998.6091,-622.4132 995.109,-612.4133 991.6091,-622.4133 998.6091,-622.4132"/>
</g>
<!-- 24 -->
<g id="node25" class="node">
<title>24</title>
<path fill="none" stroke="#56a9d8" stroke-width="2" d="M1038.109,-756C1038.109,-756 952.109,-756 952.109,-756 946.109,-756 940.109,-750 940.109,-744 940.109,-744 940.109,-732 940.109,-732 940.109,-726 946.109,-720 952.109,-720 952.109,-720 1038.109,-720 1038.109,-720 1044.109,-720 1050.109,-726 1050.109,-732 1050.109,-732 1050.109,-744 1050.109,-744 1050.109,-750 1044.109,-756 1038.109,-756"/>
<text text-anchor="middle" x="995.109" y="-735.5" font-family="sans" font-size="10.00" fill="#000000">align_concat_reads</text>
</g>
<!-- 24&#45;&gt;23 -->
<g id="edge51" class="edge">
<title>24&#45;&gt;23</title>
<path fill="none" stroke="#c0c0c0" stroke-width="2" d="M995.109,-719.8314C995.109,-712.131 995.109,-702.9743 995.109,-694.4166"/>
<polygon fill="#c0c0c0" stroke="#c0c0c0" stroke-width="2" points="998.6091,-694.4132 995.109,-684.4133 991.6091,-694.4133 998.6091,-694.4132"/>
</g>
</g>
</svg>
